 <svg version="1.0" xmlns="http://www.w3.org/2000/svg" width="700.000000pt" height="440.000000pt" viewBox="0 0 700.000000 440.000000" preserveAspectRatio="xMidYMid meet">
<metadata>
Created by potrace 1.12, written by Peter Selinger 2001-2015
</metadata>
<g transform="translate(0.000000,440.000000) scale(0.100000,-0.100000)" fill="#000000" stroke="none">
<path fill='#D9EDDF' d="M2454 3751 c-71 -43 -120 -124 -239 -391 -102 -230 -143 -306 -228
-426 -101 -143 -259 -382 -315 -475 -71 -118 -104 -208 -158 -420 -26 -101
-53 -198 -60 -216 -17 -39 -43 -56 -64 -40 -20 16 -91 96 -112 126 l-17 24
-38 -29 c-68 -51 -397 -381 -489 -489 -80 -95 -164 -216 -164 -237 0 -15 21
-8 27 10 37 98 326 396 588 606 l59 48 48 -53 c26 -30 48 -59 48 -64 0 -6 -48
-58 -106 -115 -58 -58 -141 -146 -185 -197 -114 -131 -330 -405 -324 -411 2
-3 111 98 241 224 282 274 428 404 453 404 9 0 24 12 32 26 7 14 63 63 124
108 115 86 169 147 320 366 90 130 125 170 148 170 39 0 118 -98 180 -224 32
-65 56 -124 54 -131 -5 -12 -53 -38 -127 -68 -29 -12 -38 -23 -54 -68 -73
-208 -352 -618 -521 -767 -25 -22 -41 -43 -36 -46 24 -15 282 247 409 415 78
102 163 237 201 317 33 68 37 73 83 88 26 8 50 20 53 25 10 15 45 10 45 -6 0
-8 5 -15 11 -15 7 0 9 9 5 23 -4 18 6 35 47 78 29 31 76 97 106 148 68 117
126 180 189 210 100 47 163 3 307 -214 171 -259 565 -589 913 -764 191 -96
517 -207 700 -238 36 -6 45 12 10 20 -141 31 -373 122 -558 218 -264 138 -502
314 -748 553 -122 119 -157 161 -237 281 -142 214 -217 272 -341 262 -114 -9
-211 -86 -293 -233 -66 -117 -112 -185 -123 -182 -5 2 -22 42 -37 88 -59 182
-133 287 -219 309 -77 21 -119 -15 -301 -264 -78 -106 -174 -215 -189 -215 -8
0 -12 6 -9 13 2 7 16 55 30 107 74 270 116 347 419 772 139 194 186 275 258
436 108 242 170 361 208 401 21 23 44 41 50 41 7 0 30 -17 53 -37 60 -54 145
-237 209 -448 61 -203 80 -256 119 -333 43 -84 85 -138 133 -169 42 -27 46
-28 193 -28 l150 0 47 -34 c48 -34 129 -123 392 -426 381 -439 605 -672 720
-749 67 -45 74 -35 11 16 -139 114 -443 464 -817 946 l-27 35 36 46 c20 25 94
105 163 176 174 178 199 219 310 493 33 80 64 150 70 156 18 18 86 -12 128
-58 46 -50 80 -114 141 -262 99 -242 181 -347 368 -471 145 -95 205 -154 288
-284 37 -57 95 -146 128 -197 61 -94 130 -177 342 -413 67 -74 140 -160 163
-192 38 -50 62 -70 62 -51 0 16 -192 281 -300 414 -81 101 -163 223 -248 372
-50 87 -113 189 -141 227 -46 61 -143 151 -208 192 -13 7 -23 21 -23 29 0 17
93 111 127 129 64 33 111 -12 243 -233 107 -179 205 -302 347 -436 303 -285
629 -450 889 -450 49 0 84 4 84 10 0 6 -15 10 -33 10 -60 0 -183 37 -290 88
-185 88 -386 233 -581 422 -140 136 -232 246 -345 413 -101 150 -156 212 -206
233 -51 21 -86 17 -136 -14 -40 -26 -63 -53 -113 -135 l-17 -28 -31 18 c-90
52 -195 196 -258 355 -119 299 -220 408 -378 408 l-63 0 -20 -45 c-11 -24 -41
-106 -68 -182 -96 -274 -133 -339 -295 -528 -53 -60 -106 -129 -118 -152 -13
-24 -26 -43 -30 -43 -3 0 -35 35 -71 78 -77 92 -152 163 -198 188 -29 16 -57
19 -176 19 l-142 0 -40 39 c-53 51 -102 155 -147 307 -64 219 -94 310 -125
383 -62 141 -138 249 -201 282 -38 20 -107 18 -144 -5z"></path>
</g>
</svg>